<svg width="40" height="40" viewBox="0 0 40 40" fill="none" xmlns="http://www.w3.org/2000/svg">
<path fill-rule="evenodd" clip-rule="evenodd" d="M40 20C40 31.0457 31.0457 40 20 40C8.9543 40 0 31.0457 0 20C0 8.9543 8.9543 0 20 0C31.0457 0 40 8.9543 40 20ZM15.1114 19.9999C15.1114 20.7363 14.5144 21.3333 13.778 21.3333C13.0417 21.3333 12.4447 20.7363 12.4447 19.9999C12.4447 19.2635 13.0417 18.6666 13.778 18.6666C14.5144 18.6666 15.1114 19.2635 15.1114 19.9999ZM20.0003 21.3327C20.7367 21.3327 21.3337 20.7358 21.3337 19.9994C21.3337 19.263 20.7367 18.6661 20.0003 18.6661C19.2639 18.6661 18.667 19.263 18.667 19.9994C18.667 20.7358 19.2639 21.3327 20.0003 21.3327ZM27.5551 19.9994C27.5551 20.7358 26.9581 21.3327 26.2217 21.3327C25.4854 21.3327 24.8884 20.7358 24.8884 19.9994C24.8884 19.263 25.4854 18.6661 26.2217 18.6661C26.9581 18.6661 27.5551 19.263 27.5551 19.9994Z" fill="#FF6D2F"/>
</svg>
